<?xml version="1.0" encoding="UTF-8" standalone="no"?>
<!-- Created with Inkscape (http://www.inkscape.org/) -->

<svg
   width="210mm"
   height="297mm"
   viewBox="0 0 210 297"
   version="1.1"
   id="svg1"
   xml:space="preserve"
   inkscape:version="1.4.2 (f4327f4, 2025-05-13)"
   sodipodi:docname="dibujo5.svg"
   xmlns:inkscape="http://www.inkscape.org/namespaces/inkscape"
   xmlns:sodipodi="http://sodipodi.sourceforge.net/DTD/sodipodi-0.dtd"
   xmlns:xlink="http://www.w3.org/1999/xlink"
   xmlns="http://www.w3.org/2000/svg"
   xmlns:svg="http://www.w3.org/2000/svg"><sodipodi:namedview
     id="namedview1"
     pagecolor="#ffffff"
     bordercolor="#000000"
     borderopacity="0.25"
     inkscape:showpageshadow="2"
     inkscape:pageopacity="0.0"
     inkscape:pagecheckerboard="0"
     inkscape:deskcolor="#d1d1d1"
     inkscape:document-units="mm"
     inkscape:zoom="1.3772587"
     inkscape:cx="503.89952"
     inkscape:cy="524.5928"
     inkscape:window-width="1920"
     inkscape:window-height="991"
     inkscape:window-x="-9"
     inkscape:window-y="-9"
     inkscape:window-maximized="1"
     inkscape:current-layer="layer1" /><defs
     id="defs1"><linearGradient
       id="swatch5"
       inkscape:swatch="solid"><stop
         style="stop-color:#000000;stop-opacity:1;"
         offset="0"
         id="stop5" /></linearGradient><linearGradient
       id="swatch4"
       inkscape:swatch="solid"><stop
         style="stop-color:#000000;stop-opacity:1;"
         offset="0"
         id="stop4" /></linearGradient><linearGradient
       id="swatch3"
       inkscape:swatch="solid"><stop
         style="stop-color:#000000;stop-opacity:1;"
         offset="0"
         id="stop3" /></linearGradient><linearGradient
       inkscape:collect="always"
       xlink:href="#swatch3"
       id="linearGradient3"
       x1="75.188182"
       y1="105.58268"
       x2="118.72533"
       y2="105.58268"
       gradientUnits="userSpaceOnUse" /><linearGradient
       inkscape:collect="always"
       xlink:href="#swatch4"
       id="linearGradient4"
       x1="62.826619"
       y1="151.29329"
       x2="131.08689"
       y2="151.29329"
       gradientUnits="userSpaceOnUse" /><linearGradient
       inkscape:collect="always"
       xlink:href="#swatch5"
       id="linearGradient5"
       x1="81.912332"
       y1="151.19141"
       x2="112.13703"
       y2="151.19141"
       gradientUnits="userSpaceOnUse" /></defs><g
     inkscape:label="Capa 1"
     inkscape:groupmode="layer"
     id="layer1"><g
       id="g1"
       inkscape:export-filename="g1.png"
       inkscape:export-xdpi="96"
       inkscape:export-ydpi="96"><path
         style="opacity:1;fill:#000000;stroke-width:0.2;fill-opacity:1"
         d="m 115.19346,185.96679 c 9.4021,1.15571 14.85696,-5.94191 20.3762,-12.90492 l 0.95089,-3.9394 0.13584,-5.16197 -0.13584,-39.12231 -0.13584,-3.12435 c -0.69147,-2.7058 -3.66482,-4.00736 -6.65623,-5.29781 l -4.89029,-0.27168 -0.67921,-21.055411 c -0.48972,-2.165587 -3.48581,-3.559981 -6.2487,-5.026131 L 75.799468,90.33449 c -3.488025,0.729628 -5.429344,2.895483 -6.384544,5.97702 l -0.13584,20.24036 -4.822367,0.13584 c -4.4254,0.58926 -6.525549,3.03872 -7.335433,6.52039 l 0.339603,47.74823 c 5.209965,9.46942 12.000515,15.13107 21.191249,15.01046 l 0.203761,10.39187 c 0.591071,2.48709 2.464795,3.21053 4.482764,3.73563 l 28.322919,-0.0679 c 1.50402,-0.53348 2.9444,-1.242 3.73564,-3.73563 z"
         id="path1"
         sodipodi:nodetypes="cccccccccccccccccccccc" /><path
         style="opacity:1;fill:#f4efef;fill-opacity:1;stroke-width:0.2"
         d="m 84.561234,186.03471 24.791046,-0.27168 0.13584,9.78058 -25.130649,0.20376 z"
         id="path2" /><path
         style="opacity:1;fill:#f1f1f1;fill-opacity:1;stroke:url(#linearGradient3);stroke-width:0.2"
         d="m 75.188182,116.41603 h 43.401308 l 0.13584,-19.425314 c -0.37079,-1.191378 -1.26075,-1.863601 -2.44514,-2.24138 l -38.30726,0.06792 c -1.279623,4.59e-4 -2.229479,0.701672 -2.784748,2.241384 z"
         id="path3"
         sodipodi:nodetypes="ccccccc" /><path
         style="opacity:1;fill:#f1f1f1;fill-opacity:1;stroke:url(#linearGradient4);stroke-width:0.2"
         d="m 66.358494,121.10256 61.264446,-0.13585 c 2.01695,-0.0326 3.02351,0.37888 3.44065,2.55768 l 0.0233,45.59808 -0.40752,1.22257 -1.69802,2.44514 c -1.83201,2.42436 -4.12081,4.39192 -6.31662,6.45247 l -1.82562,1.32687 -1.91002,0.77867 -2.3093,0.13584 -39.597749,0.13584 c -0.5743,-0.0403 -1.133181,-0.0718 -2.580987,-0.61128 l -2.241383,-1.42634 -3.531873,-2.924 -4.414845,-4.61519 -1.086731,-1.69802 -0.339603,-1.90178 0.203763,-45.30309 c 0.592918,-1.41699 1.843465,-1.89452 3.328112,-2.03761 z"
         id="path4"
         sodipodi:nodetypes="ccccccccccccccccccc" /><path
         style="opacity:1;fill:#010101;fill-opacity:1;stroke:url(#linearGradient5);stroke-width:0.2"
         d="m 99.843385,156.14962 -0.06792,15.96136 c -1.436361,1.91968 -3.916064,3.15628 -5.603454,0.0679 l -0.03396,-11.37671 -10.731466,-6.48643 -1.494253,-1.22257 V 142.2938 c 0.36158,-0.95553 3.365839,-3.38214 5.637414,0.10188 l 0.101883,9.03345 6.520384,3.56584 -0.06792,-24.79104 c 1.727643,-1.95379 3.582238,-2.38415 5.671376,0 l 0.169801,19.73095 -0.03396,0.30564 6.48642,-3.59979 -0.10188,-9.40702 c 2.09714,-2.18652 3.96995,-1.84926 5.70533,0.034 l 0.13585,11.37672 z"
         id="path5"
         sodipodi:nodetypes="ccccccccccccccccccc" /><path
         style="opacity:1;fill:#010101;fill-opacity:1;stroke-width:0.2"
         d="m 83.423187,100.2327 h 8.3087 c 2.6748,0.13848 2.932673,3.67244 0,4.22639 l -7.828428,-0.0481 c -1.891886,0.29379 -2.707855,-3.69893 -0.480277,-4.17834 z"
         id="path7"
         sodipodi:nodetypes="cccccc" /><path
         style="opacity:1;fill:#010101;fill-opacity:1;stroke-width:0.2"
         d="m 101.57746,100.04059 h 8.3087 c 2.6748,0.13848 2.93267,3.67244 0,4.22639 l -8.06857,-0.0481 c -1.34601,0.11732 -2.801499,-2.79732 -0.24018,-4.17834 z"
         id="path8"
         sodipodi:nodetypes="cccccc" /></g></g></svg>
