<?xml version="1.0" encoding="UTF-8" standalone="no"?>
<!-- Created with Inkscape (http://www.inkscape.org/) -->

<svg
   width="210mm"
   height="297mm"
   viewBox="0 0 210 297"
   version="1.1"
   id="svg1"
   xml:space="preserve"
   inkscape:version="1.4.2 (f4327f4, 2025-05-13)"
   sodipodi:docname="dibujo6.svg"
   xmlns:inkscape="http://www.inkscape.org/namespaces/inkscape"
   xmlns:sodipodi="http://sodipodi.sourceforge.net/DTD/sodipodi-0.dtd"
   xmlns="http://www.w3.org/2000/svg"
   xmlns:svg="http://www.w3.org/2000/svg"><sodipodi:namedview
     id="namedview1"
     pagecolor="#ffffff"
     bordercolor="#000000"
     borderopacity="0.25"
     inkscape:showpageshadow="2"
     inkscape:pageopacity="0.0"
     inkscape:pagecheckerboard="0"
     inkscape:deskcolor="#d1d1d1"
     inkscape:document-units="mm"
     inkscape:zoom="0.030433405"
     inkscape:cx="12519.138"
     inkscape:cy="-4189.4753"
     inkscape:window-width="1902"
     inkscape:window-height="973"
     inkscape:window-x="952"
     inkscape:window-y="0"
     inkscape:window-maximized="0"
     inkscape:current-layer="layer1" /><defs
     id="defs1" /><g
     inkscape:label="Capa 1"
     inkscape:groupmode="layer"
     id="layer1"><g
       id="g1"
       inkscape:export-filename="g1.png"
       inkscape:export-xdpi="96"
       inkscape:export-ydpi="96"><path
         style="opacity:1;fill:#010101;stroke-width:0.2"
         d="m 69.686608,172.5185 -0.271684,-55.55911 c 5.94846,-33.650424 55.785266,-31.467702 58.683456,0 l 0.54337,55.83079 12.52071,0.0961 -0.0233,-14.22354 7.19959,-0.13585 c 8.29948,-10.63546 5.33677,-34.19399 -0.54336,-38.30726 l -6.38455,0.13585 -0.95088,-7.47128 c -4.25636,-35.803566 -69.777037,-50.565903 -83.134905,0 l -0.271682,7.33543 -7.471275,0.13585 c -7.172523,3.86737 -7.73582,31.60678 -0.391044,38.45957 l 7.415009,0.19211 0.327948,13.68702 4.466283,-0.0398 c 3.143404,4.32778 7.379989,14.21514 24.484404,17.30812 l -0.03296,2.93224 16.165122,-0.13584 c 2.64159,-1.44669 4.17668,-6.6601 -0.79175,-8.75011 l -15.509211,-0.28816 v 2.2462 c -9.023529,-2.31477 -16.29012,-6.14691 -19.696998,-13.31244 z"
         id="path1"
         sodipodi:nodetypes="ccccccccccccccccccccccccc" /></g></g></svg>
