<?xml version="1.0" encoding="UTF-8" standalone="no"?>
<!-- Created with Inkscape (http://www.inkscape.org/) -->

<svg
   width="210mm"
   height="297mm"
   viewBox="0 0 210 297"
   version="1.1"
   id="svg1"
   xml:space="preserve"
   inkscape:version="1.4.2 (f4327f4, 2025-05-13)"
   sodipodi:docname="dibujo2.svg"
   xmlns:inkscape="http://www.inkscape.org/namespaces/inkscape"
   xmlns:sodipodi="http://sodipodi.sourceforge.net/DTD/sodipodi-0.dtd"
   xmlns:xlink="http://www.w3.org/1999/xlink"
   xmlns="http://www.w3.org/2000/svg"
   xmlns:svg="http://www.w3.org/2000/svg"><sodipodi:namedview
     id="namedview1"
     pagecolor="#ffffff"
     bordercolor="#000000"
     borderopacity="0.25"
     inkscape:showpageshadow="2"
     inkscape:pageopacity="0.0"
     inkscape:pagecheckerboard="0"
     inkscape:deskcolor="#d1d1d1"
     inkscape:document-units="mm"
     inkscape:zoom="0.68862935"
     inkscape:cx="363.04"
     inkscape:cy="511.8864"
     inkscape:window-width="1920"
     inkscape:window-height="991"
     inkscape:window-x="-9"
     inkscape:window-y="-9"
     inkscape:window-maximized="1"
     inkscape:current-layer="layer1" /><defs
     id="defs1"><linearGradient
       id="swatch12"
       inkscape:swatch="solid"><stop
         style="stop-color:#220202;stop-opacity:1;"
         offset="0"
         id="stop12" /></linearGradient><linearGradient
       id="swatch11"
       inkscape:swatch="solid"><stop
         style="stop-color:#220202;stop-opacity:1;"
         offset="0"
         id="stop11" /></linearGradient><linearGradient
       id="swatch8"
       inkscape:swatch="solid"><stop
         style="stop-color:#ffffff;stop-opacity:1;"
         offset="0"
         id="stop8" /></linearGradient><linearGradient
       id="swatch6"
       inkscape:swatch="solid"><stop
         style="stop-color:#000000;stop-opacity:1;"
         offset="0"
         id="stop6" /></linearGradient><linearGradient
       id="swatch5"
       inkscape:swatch="solid"><stop
         style="stop-color:#000000;stop-opacity:1;"
         offset="0"
         id="stop5" /></linearGradient><linearGradient
       id="swatch4"
       inkscape:swatch="solid"><stop
         style="stop-color:#000000;stop-opacity:1;"
         offset="0"
         id="stop4" /></linearGradient><linearGradient
       id="swatch3"
       inkscape:swatch="solid"><stop
         style="stop-color:#000000;stop-opacity:1;"
         offset="0"
         id="stop3" /></linearGradient><linearGradient
       id="swatch1"
       inkscape:swatch="solid"><stop
         style="stop-color:#050505;stop-opacity:1;"
         offset="0"
         id="stop1" /></linearGradient><linearGradient
       inkscape:collect="always"
       xlink:href="#swatch1"
       id="linearGradient1"
       x1="72.232861"
       y1="122.56532"
       x2="159.06598"
       y2="122.56532"
       gradientUnits="userSpaceOnUse"
       gradientTransform="matrix(0.98342234,0,0,0.9702056,2.0390992,2.440783)" /><linearGradient
       inkscape:collect="always"
       xlink:href="#swatch5"
       id="linearGradient5"
       x1="40.61656"
       y1="95.021015"
       x2="122.93641"
       y2="95.021015"
       gradientUnits="userSpaceOnUse" /><linearGradient
       inkscape:collect="always"
       xlink:href="#swatch6"
       id="linearGradient6"
       x1="54.879901"
       y1="63.709587"
       x2="112.47663"
       y2="63.709587"
       gradientUnits="userSpaceOnUse" /><linearGradient
       inkscape:collect="always"
       xlink:href="#swatch6"
       id="linearGradient7"
       gradientUnits="userSpaceOnUse"
       x1="54.879901"
       y1="63.709587"
       x2="112.47663"
       y2="63.709587"
       gradientTransform="matrix(0.46386993,0,0,1.015883,29.413547,16.511627)" /><linearGradient
       inkscape:collect="always"
       xlink:href="#swatch6"
       id="linearGradient8"
       gradientUnits="userSpaceOnUse"
       gradientTransform="matrix(0.29049713,0,0,0.9210296,38.663504,37.633082)"
       x1="54.879901"
       y1="63.709587"
       x2="112.47663"
       y2="63.709587" /><linearGradient
       inkscape:collect="always"
       xlink:href="#swatch6"
       id="linearGradient9"
       gradientUnits="userSpaceOnUse"
       gradientTransform="matrix(0.22350072,0,0,0.99234199,42.553225,48.236127)"
       x1="54.879901"
       y1="63.709587"
       x2="112.47663"
       y2="63.709587" /><linearGradient
       inkscape:collect="always"
       xlink:href="#swatch6"
       id="linearGradient10"
       gradientUnits="userSpaceOnUse"
       gradientTransform="matrix(0.22028949,0,0,0.8903267,42.652881,69.678015)"
       x1="54.879901"
       y1="63.709587"
       x2="112.47663"
       y2="63.709587" /><linearGradient
       inkscape:collect="always"
       xlink:href="#swatch12"
       id="linearGradient12"
       x1="93.169082"
       y1="149.90092"
       x2="106.11017"
       y2="149.90092"
       gradientUnits="userSpaceOnUse" /><linearGradient
       inkscape:collect="always"
       xlink:href="#swatch12"
       id="linearGradient13"
       gradientUnits="userSpaceOnUse"
       x1="93.169082"
       y1="149.90092"
       x2="106.11017"
       y2="149.90092"
       gradientTransform="matrix(1.0015765,0,0,0.98569357,29.619755,-9.2859179)" /><linearGradient
       inkscape:collect="always"
       xlink:href="#swatch12"
       id="linearGradient14"
       gradientUnits="userSpaceOnUse"
       gradientTransform="matrix(1.3301173,0,0,1.2946484,-33.084878,-90.3702)"
       x1="93.169082"
       y1="149.90092"
       x2="106.11017"
       y2="149.90092" /><linearGradient
       inkscape:collect="always"
       xlink:href="#swatch12"
       id="linearGradient15"
       gradientUnits="userSpaceOnUse"
       gradientTransform="matrix(1.1789253,0,0,1.0261134,22.034489,-50.116561)"
       x1="93.169082"
       y1="149.90092"
       x2="106.11017"
       y2="149.90092" /><linearGradient
       inkscape:collect="always"
       xlink:href="#swatch12"
       id="linearGradient17"
       gradientUnits="userSpaceOnUse"
       gradientTransform="matrix(1.1789253,0,0,1.0261134,-77.862018,-91.227815)"
       x1="93.169082"
       y1="149.90092"
       x2="106.11017"
       y2="149.90092" /><linearGradient
       inkscape:collect="always"
       xlink:href="#swatch12"
       id="linearGradient18"
       gradientUnits="userSpaceOnUse"
       gradientTransform="matrix(1.1789253,0,0,1.0261134,-78.054126,-58.953559)"
       x1="93.169082"
       y1="149.90092"
       x2="106.11017"
       y2="149.90092" /><linearGradient
       inkscape:collect="always"
       xlink:href="#swatch12"
       id="linearGradient19"
       gradientUnits="userSpaceOnUse"
       gradientTransform="matrix(1.1789253,0,0,1.0261134,-77.862017,-26.871412)"
       x1="93.169082"
       y1="149.90092"
       x2="106.11017"
       y2="149.90092" /></defs><g
     inkscape:label="Capa 1"
     inkscape:groupmode="layer"
     id="layer1"><g
       id="g1"
       inkscape:export-filename="g1.png"
       inkscape:export-xdpi="96"
       inkscape:export-ydpi="96"><path
         style="opacity:0;fill:#171717;fill-opacity:1;stroke-width:1.096;stroke-dasharray:none"
         d="m 124.48641,72.809184 0.19211,-35.732212 H 38.037516 l -0.192109,115.457308 42.840232,0.19211"
         id="path2" /><path
         style="opacity:1;fill:#ffffff;fill-opacity:1;stroke:url(#linearGradient5);stroke-width:3.496;stroke-dasharray:none"
         d="m 39.122305,38.443099 84.357475,0.271683 0,33.960335 C 118.52752,73.813473 92.26821,70.485652 77.701247,99.028338 73.415776,109.9686 72.288036,119.54474 74.848579,136.24886 l 6.520382,14.94255 -42.246655,0.13584 z"
         id="path4"
         sodipodi:nodetypes="cccccccc" /><ellipse
         style="opacity:1;fill:#fedc97;fill-opacity:1;stroke:url(#linearGradient1);stroke-width:4.09862;stroke-dasharray:none"
         id="path1"
         cx="115.77133"
         cy="121.35435"
         rx="42.696819"
         ry="48.460075" /><path
         style="opacity:1;fill:#000000;fill-opacity:1;stroke:url(#linearGradient6);stroke-width:0.2;stroke-dasharray:none"
         d="m 54.879901,61.807809 57.596729,-0.06792 c 1.17206,1.233486 1.4689,2.52532 -0.0679,3.939397 l -57.460888,-0.06792 c -2.050028,-1.690172 -0.956617,-2.861228 -0.06794,-3.803557 z"
         id="path5"
         sodipodi:nodetypes="cccccc" /><path
         style="opacity:0.99369085;fill:#000000;fill-opacity:1;stroke:url(#linearGradient7);stroke-width:0.137294;stroke-dasharray:none"
         d="m 54.870682,79.301137 26.717393,-0.069 c 0.950651,1.162641 1.826671,2.310921 -0.03149,4.001967 L 54.9022,83.1651 c -1.342158,-1.216806 -0.991224,-2.615686 0.03641,-3.931888 z"
         id="path6"
         sodipodi:nodetypes="cccccc" /><path
         style="opacity:0.98107256;fill:#000000;fill-opacity:1;stroke:url(#linearGradient8);stroke-width:0.103452;stroke-dasharray:none"
         d="m 54.605958,94.559915 16.731685,-0.06257 c 0.595343,1.054084 1.143948,2.095149 -0.01973,3.628302 l -16.692226,-0.06257 c -0.840523,-1.103192 -0.620751,-2.371459 0.0228,-3.564766 z"
         id="path8"
         sodipodi:nodetypes="cccccc" /><path
         style="opacity:1;fill:#000000;fill-opacity:1;stroke:url(#linearGradient9);stroke-width:0.0941892;stroke-dasharray:none"
         d="m 54.818923,109.57061 12.872911,-0.0674 c 0.458041,1.13571 0.880122,2.25738 -0.01518,3.90925 l -12.842551,-0.0674 c -0.646676,-1.18861 -0.477589,-2.55507 0.01754,-3.84077 z"
         id="path9"
         sodipodi:nodetypes="cccccc" /><path
         style="opacity:1;fill:#000000;fill-opacity:1;stroke:url(#linearGradient10);stroke-width:0.0885732;stroke-dasharray:none"
         d="m 54.742345,124.70715 12.687954,-0.0605 c 0.451458,1.01894 0.867477,2.0253 -0.01496,3.50735 l -12.658031,-0.0605 c -0.637385,-1.06642 -0.470728,-2.29242 0.01729,-3.44594 z"
         id="path10"
         sodipodi:nodetypes="cccccc" /><rect
         style="opacity:1;fill:#6abdc8;fill-opacity:1;stroke:url(#linearGradient12);stroke-width:2.55884;stroke-dasharray:none;stroke-opacity:1"
         id="rect11"
         width="10.382248"
         height="12.284026"
         x="94.448502"
         y="143.75891" /><rect
         style="opacity:1;fill:#6abdc8;fill-opacity:1;stroke:url(#linearGradient13);stroke-width:2.54247;stroke-dasharray:none;stroke-opacity:1"
         id="rect12"
         width="10.398616"
         height="12.108286"
         x="124.21716"
         y="132.41632" /><rect
         style="opacity:0.99;fill:#6abdc8;fill-opacity:1;stroke:url(#linearGradient14);stroke-width:3.35787;stroke-dasharray:none;stroke-opacity:1"
         id="rect13"
         width="13.809608"
         height="15.903495"
         x="92.542717"
         y="95.747047" /><rect
         style="opacity:0.99;fill:#6abdc8;fill-opacity:1;stroke:url(#linearGradient15);stroke-width:2.81439;stroke-dasharray:none;stroke-opacity:1"
         id="rect14"
         width="12.239896"
         height="12.604804"
         x="133.38223"
         y="97.3964" /><path
         style="opacity:1;fill:#000000;fill-opacity:1;stroke:#220202;stroke-width:0.153;stroke-dasharray:none;stroke-opacity:1"
         d="m 113.6803,101.52943 h 6.24354 c -1.00954,-1.08283 -1.15862,-2.529602 -0.096,-3.457957 0.31314,-0.281179 0.93831,-0.361929 1.63292,0 l 5.81129,4.274417 c 0.31914,0.2069 0.44886,1.57803 -0.14408,2.25727 l -5.23496,3.89021 c -0.41755,0.36733 -1.2397,0.80148 -2.35333,0 -0.66601,-0.94802 -0.74194,-1.94969 0,-3.02571 h -5.85932 c -1.8661,-0.20061 -1.56662,-3.70342 -3e-5,-3.93823 z"
         id="path15"
         sodipodi:nodetypes="cccccccccccc" /><path
         style="opacity:1;fill:#000000;fill-opacity:1;stroke:#220202;stroke-width:0.153;stroke-dasharray:none;stroke-opacity:1"
         d="m 113.67349,115.36509 3.50139,5.16933 c 0.33038,-1.4431 1.44463,-2.37788 2.80918,-2.01871 0.40841,0.10158 0.82586,0.57391 0.91575,1.35197 l -0.28002,7.20856 c 0.008,0.38027 -1.05481,1.2566 -1.94971,1.1466 l -6.15667,-2.15265 c -0.5383,-0.13971 -1.35881,-0.57694 -1.31976,-1.94844 0.41142,-1.08307 1.19817,-1.70768 2.50514,-1.69682 l -3.28592,-4.85123 c -1.15891,-1.4877 2.18862,-3.35491 3.26064,-2.20859 z"
         id="path16"
         sodipodi:nodetypes="cccccccccccc" /><path
         style="opacity:1;fill:#000000;fill-opacity:1;stroke:#220202;stroke-width:0.153;stroke-dasharray:none;stroke-opacity:1"
         d="m 101.69846,120.84272 -0.10276,6.24268 c 1.09931,-0.99157 2.54833,-1.11682 3.45907,-0.0391 0.27598,0.31772 0.34643,0.94414 -0.0269,1.6327 l -4.36949,5.74014 c -0.21187,0.31589 -1.585207,0.42283 -2.254607,-0.18115 l -3.803515,-5.29829 c -0.360412,-0.42355 -0.780964,-1.25272 0.03873,-2.35302 0.958856,-0.6503 1.961642,-0.70974 3.025303,0.0498 l 0.09644,-5.85853 c 0.43155,-2.02918 3.742359,-1.4718 3.937699,0.0648 z"
         id="path17"
         sodipodi:nodetypes="cccccccccccc" /><rect
         style="opacity:1;fill:#e83022;fill-opacity:1;stroke:url(#linearGradient17);stroke-width:2.81439;stroke-dasharray:none;stroke-opacity:1"
         id="rect17"
         width="13.968877"
         height="12.796914"
         x="31.75675"
         y="56.093029"
         ry="3.0737381" /><rect
         style="opacity:1;fill:#e83022;fill-opacity:1;stroke:url(#linearGradient18);stroke-width:2.81439;stroke-dasharray:none;stroke-opacity:1"
         id="rect18"
         width="13.968877"
         height="12.796914"
         x="31.56464"
         y="88.367287"
         ry="3.0737381" /><rect
         style="opacity:1;fill:#e83022;fill-opacity:1;stroke:url(#linearGradient19);stroke-width:2.81439;stroke-dasharray:none;stroke-opacity:1"
         id="rect19"
         width="13.968877"
         height="12.796914"
         x="31.756748"
         y="120.44943"
         ry="3.0737381" /></g></g></svg>
