<?xml version="1.0" encoding="UTF-8" standalone="no"?>
<!-- Created with Inkscape (http://www.inkscape.org/) -->

<svg
   width="210mm"
   height="297mm"
   viewBox="0 0 210 297"
   version="1.1"
   id="svg1"
   xml:space="preserve"
   inkscape:version="1.4.2 (f4327f4, 2025-05-13)"
   sodipodi:docname="dibujo4.svg"
   xmlns:inkscape="http://www.inkscape.org/namespaces/inkscape"
   xmlns:sodipodi="http://sodipodi.sourceforge.net/DTD/sodipodi-0.dtd"
   xmlns:xlink="http://www.w3.org/1999/xlink"
   xmlns="http://www.w3.org/2000/svg"
   xmlns:svg="http://www.w3.org/2000/svg"><sodipodi:namedview
     id="namedview1"
     pagecolor="#ffffff"
     bordercolor="#000000"
     borderopacity="0.25"
     inkscape:showpageshadow="2"
     inkscape:pageopacity="0.0"
     inkscape:pagecheckerboard="0"
     inkscape:deskcolor="#d1d1d1"
     inkscape:document-units="mm"
     inkscape:zoom="0.97386896"
     inkscape:cx="671.54825"
     inkscape:cy="645.36403"
     inkscape:window-width="1920"
     inkscape:window-height="991"
     inkscape:window-x="-9"
     inkscape:window-y="-9"
     inkscape:window-maximized="1"
     inkscape:current-layer="layer1"
     showgrid="false" /><defs
     id="defs1"><linearGradient
       id="swatch1"
       inkscape:swatch="solid"><stop
         style="stop-color:#010909;stop-opacity:1;"
         offset="0"
         id="stop1" /></linearGradient><linearGradient
       inkscape:collect="always"
       xlink:href="#swatch1"
       id="linearGradient1"
       x1="34.432511"
       y1="180.61915"
       x2="111.11205"
       y2="180.61915"
       gradientUnits="userSpaceOnUse"
       gradientTransform="translate(-0.76843467,2.1131953)" /></defs><g
     inkscape:label="Capa 1"
     inkscape:groupmode="layer"
     id="layer1"><g
       id="g1"
       inkscape:export-filename="g1.png"
       inkscape:export-xdpi="96"
       inkscape:export-ydpi="96"><path
         style="opacity:0.637224;fill:#d3ced5;fill-opacity:1;stroke:none;stroke-width:0.2;stroke-dasharray:none"
         d="m 37.234121,162.29004 c -11.900286,20.4399 -4.810151,36.66992 0.627766,43.95709 13.284079,14.37074 20.027906,16.23986 40.121406,13.2342 16.94948,-5.43598 27.661567,-20.26416 48.698717,-42.96243 8.09976,-15.67485 6.78094,-20.98985 6.83351,-27.44258 l -7.01196,12.77523 -10.9502,13.15944 -8.06856,7.20408 -11.430468,7.01196 -13.831824,5.57116 -12.294954,1.92108 C 43.76381,196.85409 37.764782,180.6821 37.234121,162.29004 Z"
         id="path7"
         sodipodi:nodetypes="cccccccccccc" /><path
         style="opacity:1;fill:none;stroke:url(#linearGradient1);stroke-width:3.909;stroke-dasharray:none"
         d="m 53.118046,144.08151 c -6.633916,7.13387 -14.996631,13.97975 -20.267464,22.47671 -12.35239,32.27652 12.005167,68.54895 52.829883,51.86934 9.035182,-4.13806 18.384835,-16.04736 26.511005,-23.82148"
         id="path1"
         sodipodi:nodetypes="cccc" /><path
         style="opacity:1;fill:#000000;stroke:#010909;stroke-width:0.2;stroke-dasharray:none;fill-opacity:1"
         d="m 56.102474,137.74312 19.289469,-17.65937 c 48.717397,-23.170346 72.852977,27.81903 57.936327,52.33288 0.33407,-0.17442 -1.87076,3.74374 -2.78474,5.128 l -12.22572,13.04077 c -1.57083,0.68406 -3.45283,0.58835 -3.2602,-2.3093 l 10.86732,-11.00315 c 26.6556,-43.57037 -23.67016,-75.14077 -51.755558,-51.07635 l -14.670865,14.12751 c -1.729943,0.85651 -3.85071,0.54174 -3.396033,-2.58099 z"
         id="path2"
         sodipodi:nodetypes="cccccccccc" /><path
         style="opacity:1;fill:#000000;stroke:#010909;stroke-width:0.2;stroke-dasharray:none;fill-opacity:1"
         d="m 120.212,120.54819 5.76326,-5.18694 c 2.17636,-0.53209 4.40798,-0.8247 6.96394,0.28817 l 5.90734,-5.90735 c 0.27661,-0.42586 0.73917,-0.69676 0.28816,-1.72897 -2.79638,-2.48993 -3.65072,-5.64424 -1.5849,-9.797545 2.24667,-3.662621 8.984,-5.912873 12.53509,-0.672381 1.72489,-0.123229 1.99313,-1.05571 2.6415,-1.777005 L 163.43645,85.24822 c 1.81374,-0.631534 2.82942,0.499251 2.8336,2.113195 l -11.62258,12.391009 c -1.64993,1.219476 -3.27793,2.478116 -6.67577,0.576326 -2.63126,-2.237557 -5.19346,-3.370218 -7.44421,0.48027 -0.85707,1.05045 -0.61552,2.37555 0.57632,3.93823 0.88844,1.64875 2.61525,2.88799 1.48885,6.1955 l -7.20408,7.34816 c 0.71791,1.48975 2.06712,1.99308 0.86449,6.48367 l -1.39279,2.25727 -1.82503,1.96912 -2.54544,2.20925 -0.14408,0.0961 z"
         id="path4"
         sodipodi:nodetypes="cccccccccccccccccccccc" /><path
         style="opacity:1;fill:#443f44;stroke:#010909;stroke-width:0.2;stroke-dasharray:none;fill-opacity:1"
         d="m 123.18968,122.85349 4.13034,-3.98625 c 2.75153,-0.76266 7.04129,0.27936 5.1389,5.42707 l -3.98625,4.08231 z"
         id="path3"
         sodipodi:nodetypes="ccccc" /><path
         style="opacity:1;fill:#000000;fill-opacity:1;stroke:#010909;stroke-width:0.2;stroke-dasharray:none"
         d="m 121.7581,126.96635 -9.37453,9.47883 c -2.03491,-1.37979 -4.64336,-0.88641 -7.44421,-0.096 l -9.845571,9.31726 c -2.050906,3.02572 -1.889883,5.77171 -0.432245,8.40476 l -5.282988,5.6672 c -0.01451,1.75927 0.301231,3.13613 2.689521,2.1132 l 5.042853,-5.04285 c 2.90888,1.89368 5.87881,1.69319 8.78897,-0.76844 l 9.26924,-9.70149 c 1.2242,-3.02146 0.66644,-5.15194 0.14409,-7.30012 l 9.35464,-9.28672"
         id="path5"
         sodipodi:nodetypes="cccccccccccc" /><path
         style="opacity:1;fill:#544f57;stroke:#010909;stroke-width:0.2;stroke-dasharray:none;fill-opacity:1"
         d="m 106.66833,139.80708 c 4.16065,-0.88862 5.8676,0.88179 5.42708,4.46653 l -9.60543,9.70149 c -4.489135,1.09253 -5.281041,-1.10453 -5.04286,-4.99483 z"
         id="path6"
         sodipodi:nodetypes="ccccc" /></g></g></svg>
