<?xml version="1.0" encoding="UTF-8" standalone="no"?>
<!-- Created with Inkscape (http://www.inkscape.org/) -->

<svg
   width="210mm"
   height="297mm"
   viewBox="0 0 210 297"
   version="1.1"
   id="svg1"
   xml:space="preserve"
   inkscape:version="1.4.2 (f4327f4, 2025-05-13)"
   sodipodi:docname="dibujo7.svg"
   xmlns:inkscape="http://www.inkscape.org/namespaces/inkscape"
   xmlns:sodipodi="http://sodipodi.sourceforge.net/DTD/sodipodi-0.dtd"
   xmlns:xlink="http://www.w3.org/1999/xlink"
   xmlns="http://www.w3.org/2000/svg"
   xmlns:svg="http://www.w3.org/2000/svg"><sodipodi:namedview
     id="namedview1"
     pagecolor="#ffffff"
     bordercolor="#000000"
     borderopacity="0.25"
     inkscape:showpageshadow="2"
     inkscape:pageopacity="0.0"
     inkscape:pagecheckerboard="0"
     inkscape:deskcolor="#d1d1d1"
     inkscape:document-units="mm"
     inkscape:zoom="0.97386896"
     inkscape:cx="476.45014"
     inkscape:cy="648.44453"
     inkscape:window-width="1920"
     inkscape:window-height="991"
     inkscape:window-x="-9"
     inkscape:window-y="-9"
     inkscape:window-maximized="1"
     inkscape:current-layer="layer1" /><defs
     id="defs1"><linearGradient
       id="swatch16"
       inkscape:swatch="solid"><stop
         style="stop-color:#000000;stop-opacity:1;"
         offset="0"
         id="stop16" /></linearGradient><linearGradient
       id="swatch15"
       inkscape:swatch="solid"><stop
         style="stop-color:#000000;stop-opacity:1;"
         offset="0"
         id="stop15" /></linearGradient><linearGradient
       id="swatch12"
       inkscape:swatch="solid"><stop
         style="stop-color:#000000;stop-opacity:1;"
         offset="0"
         id="stop12" /></linearGradient><linearGradient
       id="swatch11"
       inkscape:swatch="solid"><stop
         style="stop-color:#000000;stop-opacity:1;"
         offset="0"
         id="stop11" /></linearGradient><linearGradient
       id="swatch10"
       inkscape:swatch="solid"><stop
         style="stop-color:#000000;stop-opacity:1;"
         offset="0"
         id="stop10" /></linearGradient><linearGradient
       id="swatch9"
       inkscape:swatch="solid"><stop
         style="stop-color:#000000;stop-opacity:1;"
         offset="0"
         id="stop9" /></linearGradient><linearGradient
       id="swatch3"
       inkscape:swatch="solid"><stop
         style="stop-color:#000000;stop-opacity:1;"
         offset="0"
         id="stop3" /></linearGradient><linearGradient
       id="swatch2"
       inkscape:swatch="solid"><stop
         style="stop-color:#000000;stop-opacity:1;"
         offset="0"
         id="stop2" /></linearGradient><linearGradient
       id="swatch1"
       inkscape:swatch="solid"><stop
         style="stop-color:#000000;stop-opacity:1;"
         offset="0"
         id="stop1" /></linearGradient><linearGradient
       inkscape:collect="always"
       xlink:href="#swatch1"
       id="linearGradient1"
       x1="72.131753"
       y1="208.44853"
       x2="169.52999"
       y2="208.44853"
       gradientUnits="userSpaceOnUse" /><linearGradient
       inkscape:collect="always"
       xlink:href="#swatch2"
       id="linearGradient2"
       x1="24.109598"
       y1="208.38983"
       x2="112.76779"
       y2="208.38983"
       gradientUnits="userSpaceOnUse" /><linearGradient
       inkscape:collect="always"
       xlink:href="#swatch3"
       id="linearGradient3"
       x1="39.869432"
       y1="212.79548"
       x2="48.019914"
       y2="212.79548"
       gradientUnits="userSpaceOnUse" /><linearGradient
       inkscape:collect="always"
       xlink:href="#swatch3"
       id="linearGradient4"
       gradientUnits="userSpaceOnUse"
       x1="39.869432"
       y1="212.79548"
       x2="48.019914"
       y2="212.79548"
       gradientTransform="translate(15.893437,-0.20376201)" /><linearGradient
       inkscape:collect="always"
       xlink:href="#swatch3"
       id="linearGradient5"
       gradientUnits="userSpaceOnUse"
       gradientTransform="translate(31.990636,-0.20376201)"
       x1="39.869432"
       y1="212.79548"
       x2="48.019914"
       y2="212.79548" /><linearGradient
       inkscape:collect="always"
       xlink:href="#swatch3"
       id="linearGradient6"
       gradientUnits="userSpaceOnUse"
       gradientTransform="translate(48.155756,-0.27168268)"
       x1="39.869432"
       y1="212.79548"
       x2="48.019914"
       y2="212.79548" /><linearGradient
       inkscape:collect="always"
       xlink:href="#swatch3"
       id="linearGradient7"
       gradientUnits="userSpaceOnUse"
       gradientTransform="translate(89.655286,-0.20376201)"
       x1="39.869432"
       y1="212.79548"
       x2="48.019914"
       y2="212.79548" /><linearGradient
       inkscape:collect="always"
       xlink:href="#swatch3"
       id="linearGradient8"
       gradientUnits="userSpaceOnUse"
       gradientTransform="translate(105.68456,-0.27168268)"
       x1="39.869432"
       y1="212.79548"
       x2="48.019914"
       y2="212.79548" /><linearGradient
       inkscape:collect="always"
       xlink:href="#swatch9"
       id="linearGradient9"
       x1="136.24886"
       y1="158.18724"
       x2="153.22903"
       y2="158.18724"
       gradientUnits="userSpaceOnUse" /><linearGradient
       inkscape:collect="always"
       xlink:href="#swatch10"
       id="linearGradient10"
       x1="40.888242"
       y1="178.15591"
       x2="45.642691"
       y2="178.15591"
       gradientUnits="userSpaceOnUse" /><linearGradient
       inkscape:collect="always"
       xlink:href="#swatch11"
       id="linearGradient11"
       x1="42.263906"
       y1="158.29752"
       x2="57.440491"
       y2="158.29752"
       gradientUnits="userSpaceOnUse" /><linearGradient
       inkscape:collect="always"
       xlink:href="#swatch12"
       id="linearGradient12"
       x1="67.62225"
       y1="150.99743"
       x2="126.59961"
       y2="150.99743"
       gradientUnits="userSpaceOnUse" /><linearGradient
       inkscape:collect="always"
       xlink:href="#swatch12"
       id="linearGradient13"
       gradientUnits="userSpaceOnUse"
       x1="67.62225"
       y1="150.99743"
       x2="126.59961"
       y2="150.99743"
       gradientTransform="matrix(0.71338747,0,0,0.7498863,27.944489,45.647771)" /><linearGradient
       inkscape:collect="always"
       xlink:href="#swatch15"
       id="linearGradient15"
       x1="90.538254"
       y1="173.26563"
       x2="103.57902"
       y2="173.26563"
       gradientUnits="userSpaceOnUse" /><linearGradient
       inkscape:collect="always"
       xlink:href="#swatch16"
       id="linearGradient16"
       x1="83.678264"
       y1="166.57545"
       x2="110.30317"
       y2="166.57545"
       gradientUnits="userSpaceOnUse" /></defs><g
     inkscape:label="Capa 1"
     inkscape:groupmode="layer"
     id="layer1"><g
       id="g1"
       inkscape:export-filename="g1.png"
       inkscape:export-xdpi="96"
       inkscape:export-ydpi="96"><path
         style="opacity:1;fill:#000000;stroke:url(#linearGradient1);stroke-width:0.1;fill-opacity:1"
         d="m 120.62711,192.8947 43.33339,-0.13584 c 3.67366,1.59892 5.14645,3.56465 5.56949,5.70534 l -0.13584,18.33858 c -0.49006,5.43982 -3.23938,7.30025 -6.79207,7.33543 H 72.131753 c -2.131691,-0.0166 -2.238723,-3.60403 0.06792,-3.87147 l 89.043997,0.3396 c 2.84124,-0.34412 4.88197,-1.53323 4.48277,-5.29782 l 0.40752,-13.99165 c 0.0906,-3.53188 -1.53954,-5.16197 -4.89029,-4.89029 l -40.48072,-1e-5 c -2.50505,-0.0229 -1.91291,-3.6154 -0.13584,-3.53187 z"
         id="path1"
         sodipodi:nodetypes="ccccccccccccc" /><path
         style="opacity:1;fill:#000000;stroke:url(#linearGradient2);stroke-width:0.1;fill-opacity:1"
         d="m 112.76779,192.68499 c 2.35378,1.38003 1.02988,3.10811 -0.0961,3.55401 l -80.397474,0.096 c -2.113,-0.0509 -3.4895,1.07657 -4.322445,3.07374 v 17.48189 c 1.440815,3.66075 2.88163,2.86075 4.322445,3.45796 l 31.601875,-0.0961 c 2.24064,0.82243 1.922402,3.71041 -0.192109,3.84218 l -33.619016,-0.19211 c -5.279884,-0.98483 -5.911616,-3.65091 -5.955368,-6.62775 l 0.192108,-18.05822 c 0.917563,-3.31946 2.687021,-5.91808 6.915912,-6.43564 z"
         id="path2"
         sodipodi:nodetypes="ccccccccccccc" /><path
         style="opacity:1;fill:#000000;stroke:url(#linearGradient3);stroke-width:0.1;fill-opacity:1"
         d="m 40.412797,211.23328 7.471276,-0.0679 c 1.586601,-0.0212 2.041407,2.82278 -0.135843,3.32812 l -7.403353,0.0679 c -1.632883,-0.60403 -1.338509,-2.96345 0.06792,-3.32814 z"
         id="path3"
         sodipodi:nodetypes="ccccc" /><path
         style="opacity:1;fill:#000000;stroke:url(#linearGradient4);stroke-width:0.1;fill-opacity:1"
         d="m 56.306234,211.02952 7.471276,-0.0679 c 1.586601,-0.0212 2.109327,2.95862 -0.06792,3.46396 l -7.471273,-0.0679 c -1.632883,-0.60403 -1.338509,-2.96345 0.06792,-3.32814 z"
         id="path4"
         sodipodi:nodetypes="ccccc" /><path
         style="opacity:1;fill:#000000;stroke:url(#linearGradient5);stroke-width:0.1;fill-opacity:1"
         d="m 72.403433,211.02952 7.471276,-0.0679 c 1.586601,-0.0212 2.109327,2.95862 -0.06792,3.46396 l -7.471273,-0.0679 c -1.632883,-0.60403 -1.338509,-2.96345 0.06792,-3.32814 z"
         id="path5"
         sodipodi:nodetypes="ccccc" /><path
         style="opacity:1;fill:#000000;stroke:url(#linearGradient6);stroke-width:0.1;fill-opacity:1"
         d="m 88.568553,210.9616 7.471276,-0.0679 c 1.586601,-0.0212 2.109327,2.95862 -0.06792,3.46396 l -7.471273,-0.0679 c -1.632883,-0.60403 -1.338509,-2.96345 0.06792,-3.32814 z"
         id="path6"
         sodipodi:nodetypes="ccccc" /><path
         style="opacity:1;fill:#000000;stroke:url(#linearGradient7);stroke-width:0.1;fill-opacity:1"
         d="m 130.06808,211.02952 7.47128,-0.0679 c 1.5866,-0.0212 2.10933,2.95862 -0.0679,3.46396 l -7.47127,-0.0679 c -1.63289,-0.60403 -1.33851,-2.96345 0.0679,-3.32814 z"
         id="path7"
         sodipodi:nodetypes="ccccc" /><path
         style="opacity:1;fill:#000000;stroke:url(#linearGradient8);stroke-width:0.1;fill-opacity:1"
         d="m 146.09736,210.9616 7.47128,-0.0679 c 1.5866,-0.0212 2.10933,2.95862 -0.0679,3.46396 l -7.47127,-0.0679 c -1.63289,-0.60403 -1.33851,-2.96345 0.0679,-3.32814 z"
         id="path8"
         sodipodi:nodetypes="ccccc" /><path
         style="opacity:1;fill:#000000;stroke:url(#linearGradient9);stroke-width:0.1;fill-opacity:1"
         d="m 136.24886,192.62302 2.58099,-69.41492 c 4.72455,-6.59817 9.55683,-4.41527 11.68235,0.13584 l 2.71683,69.41492 -4.48276,-0.13584 -1.90178,-67.24146 c -0.007,-1.82468 -2.72008,-5.09313 -4.34693,0 l -1.90177,67.78483 z"
         id="path9"
         sodipodi:nodetypes="ccccccccc" /><path
         style="opacity:1;fill:#000000;stroke:url(#linearGradient10);stroke-width:0.1;fill-opacity:1"
         d="m 44.86743,192.91118 0.775261,-29.22237 c -0.783184,-2.37806 -3.157395,-2.31571 -3.803558,0.13585 l -0.950891,29.14279 z"
         id="path10"
         sodipodi:nodetypes="ccccc" /><path
         style="opacity:1;fill:#000000;stroke:url(#linearGradient11);stroke-width:0.1;fill-opacity:1"
         d="m 53.310154,192.49288 -2.209249,-67.7183 c -0.581529,-2.64773 -3.304101,-3.03186 -4.034282,0.28816 l -0.960544,30.44922 c 0.465676,0.90211 -2.92939,3.575 -3.842173,0 l 0.960543,-32.08214 c 2.295059,-6.20342 9.678844,-5.7671 11.814683,0.096 l 2.20925,69.35123 z"
         id="path11"
         sodipodi:nodetypes="ccccccccc" /><path
         style="opacity:1;fill:#000000;stroke:url(#linearGradient12);stroke-width:0.1;fill-opacity:1"
         d="m 67.62225,149.5566 c 22.203379,-19.80574 47.39738,-11.19094 58.97736,0.48027 0.14156,2.4159 -1.27594,2.68809 -3.16979,2.3053 -7.18712,-7.61041 -31.992126,-20.01216 -53.310158,0.0961 -1.574604,0.0784 -3.396446,0.50299 -2.497412,-2.88167 z"
         id="path12"
         sodipodi:nodetypes="ccccc" /><path
         style="opacity:1;fill:#000000;stroke:url(#linearGradient13);stroke-width:0.0731409;fill-opacity:1"
         d="m 76.185355,157.79822 c 11.849984,-14.08436 34.942725,-8.04476 42.073715,0.36015 0.10098,1.81165 -0.91024,2.01576 -2.26128,1.7287 -5.35108,-5.44576 -23.999771,-13.63369 -38.030813,0.0721 -1.123304,0.0588 -2.422981,0.37718 -1.781622,-2.16093 z"
         id="path13"
         sodipodi:nodetypes="cccccc" /><path
         style="opacity:1;fill:#000000;stroke:url(#linearGradient15);stroke-width:0.1;fill-opacity:1"
         d="m 92.779635,174.42028 c 2.888292,-2.19737 5.714579,-2.65862 8.422165,0.20376 1.24822,-0.17661 2.539,-0.28938 2.37722,-2.58098 -1.54418,-2.6345 -8.693403,-5.62783 -13.040766,-0.13584 -0.270329,2.4204 0.906829,2.58914 2.241381,2.51306 z"
         id="path15"
         sodipodi:nodetypes="ccccc" /><path
         style="opacity:1;fill:#000000;stroke:url(#linearGradient16);stroke-width:0.1;fill-opacity:1"
         d="m 85.851726,167.83197 c 8.733924,-7.55464 16.271694,-5.19264 22.549664,0.13585 1.49543,0.45021 2.83272,-0.9701 1.90178,-2.78475 -8.74946,-8.30048 -20.035482,-7.09706 -26.624906,0.0679 -0.341018,1.24359 0.111547,3.23324 2.173462,2.581 z"
         id="path16"
         sodipodi:nodetypes="ccccc" /></g></g></svg>
