<?xml version="1.0" encoding="UTF-8" standalone="no"?>
<!-- Created with Inkscape (http://www.inkscape.org/) -->

<svg
   width="210mm"
   height="297mm"
   viewBox="0 0 210 297"
   version="1.1"
   id="svg1"
   xml:space="preserve"
   inkscape:version="1.4.2 (f4327f4, 2025-05-13)"
   sodipodi:docname="dibujo1.svg"
   xmlns:inkscape="http://www.inkscape.org/namespaces/inkscape"
   xmlns:sodipodi="http://sodipodi.sourceforge.net/DTD/sodipodi-0.dtd"
   xmlns:xlink="http://www.w3.org/1999/xlink"
   xmlns="http://www.w3.org/2000/svg"
   xmlns:svg="http://www.w3.org/2000/svg"><sodipodi:namedview
     id="namedview1"
     pagecolor="#ffffff"
     bordercolor="#000000"
     borderopacity="0.25"
     inkscape:showpageshadow="2"
     inkscape:pageopacity="0.0"
     inkscape:pagecheckerboard="0"
     inkscape:deskcolor="#d1d1d1"
     inkscape:document-units="mm"
     inkscape:zoom="0.68862935"
     inkscape:cx="829.90944"
     inkscape:cy="585.94656"
     inkscape:window-width="1920"
     inkscape:window-height="991"
     inkscape:window-x="-9"
     inkscape:window-y="-9"
     inkscape:window-maximized="1"
     inkscape:current-layer="layer1"
     showgrid="false" /><defs
     id="defs1"><linearGradient
       id="swatch12"
       inkscape:swatch="solid"><stop
         style="stop-color:#000000;stop-opacity:1;"
         offset="0"
         id="stop12" /></linearGradient><linearGradient
       id="swatch10"
       inkscape:swatch="solid"><stop
         style="stop-color:#000000;stop-opacity:1;"
         offset="0"
         id="stop10" /></linearGradient><linearGradient
       id="swatch9"
       inkscape:swatch="solid"><stop
         style="stop-color:#000000;stop-opacity:1;"
         offset="0"
         id="stop9" /></linearGradient><linearGradient
       id="swatch7"
       inkscape:swatch="solid"><stop
         style="stop-color:#000000;stop-opacity:1;"
         offset="0"
         id="stop7" /></linearGradient><linearGradient
       id="swatch6"
       inkscape:swatch="solid"><stop
         style="stop-color:#000000;stop-opacity:1;"
         offset="0"
         id="stop6" /></linearGradient><linearGradient
       id="swatch5"
       inkscape:swatch="solid"><stop
         style="stop-color:#000000;stop-opacity:1;"
         offset="0"
         id="stop5" /></linearGradient><linearGradient
       id="swatch2"
       inkscape:swatch="solid"><stop
         style="stop-color:#000000;stop-opacity:1;"
         offset="0"
         id="stop2" /></linearGradient><linearGradient
       inkscape:collect="always"
       xlink:href="#swatch2"
       id="linearGradient2"
       x1="50.524574"
       y1="104.17092"
       x2="109.69405"
       y2="104.17092"
       gradientUnits="userSpaceOnUse" /><linearGradient
       inkscape:collect="always"
       xlink:href="#swatch5"
       id="linearGradient5"
       x1="266.1811"
       y1="149.69718"
       x2="270.66388"
       y2="149.69718"
       gradientUnits="userSpaceOnUse"
       gradientTransform="matrix(1.4115127,0,0,1.1958571,-275.04635,-8.736753)" /><linearGradient
       inkscape:collect="always"
       xlink:href="#swatch6"
       id="linearGradient6"
       x1="120.9324"
       y1="107.58085"
       x2="132.26682"
       y2="107.58085"
       gradientUnits="userSpaceOnUse" /><linearGradient
       inkscape:collect="always"
       xlink:href="#swatch7"
       id="linearGradient7"
       x1="120.89879"
       y1="128.06442"
       x2="131.90194"
       y2="128.06442"
       gradientUnits="userSpaceOnUse" /><linearGradient
       inkscape:collect="always"
       xlink:href="#swatch6"
       id="linearGradient8"
       gradientUnits="userSpaceOnUse"
       x1="120.9324"
       y1="107.58085"
       x2="132.26682"
       y2="107.58085"
       gradientTransform="matrix(-0.95828872,0.00118836,-0.00113866,-1.0001196,274.79308,235.79715)" /><linearGradient
       inkscape:collect="always"
       xlink:href="#swatch9"
       id="linearGradient9"
       x1="147.8633"
       y1="107.92595"
       x2="158.59476"
       y2="107.92595"
       gradientUnits="userSpaceOnUse" /><linearGradient
       inkscape:collect="always"
       xlink:href="#swatch10"
       id="linearGradient10"
       x1="131.29066"
       y1="107.07694"
       x2="147.93122"
       y2="107.07694"
       gradientUnits="userSpaceOnUse" /><linearGradient
       inkscape:collect="always"
       xlink:href="#swatch10"
       id="linearGradient11"
       gradientUnits="userSpaceOnUse"
       x1="131.29066"
       y1="107.07694"
       x2="147.93122"
       y2="107.07694"
       gradientTransform="rotate(179.7805,139.63601,118.03185)" /><linearGradient
       inkscape:collect="always"
       xlink:href="#swatch12"
       id="linearGradient12"
       x1="54.172312"
       y1="146.27176"
       x2="154.83963"
       y2="146.27176"
       gradientUnits="userSpaceOnUse" /><linearGradient
       inkscape:collect="always"
       xlink:href="#swatch12"
       id="linearGradient13"
       gradientUnits="userSpaceOnUse"
       x1="54.172312"
       y1="146.27176"
       x2="154.83963"
       y2="146.27176"
       gradientTransform="translate(0.26414941,9.2212161)" /></defs><g
     inkscape:label="Capa 1"
     inkscape:groupmode="layer"
     id="layer1"><path
       style="opacity:1;fill:#000000;stroke-width:0.2;fill-opacity:1"
       d="m 124.83819,190.72124 -0.13584,-12.08988 37.08469,-0.54336 c 5.28953,-1.001 6.73439,-4.24473 7.74295,-7.74296 V 98.756654 c -0.96463,-3.626846 -2.72317,-6.636203 -6.92791,-7.742957 l -52.97812,0.271685 -60.856918,-0.271685 c -4.360072,0.233336 -7.367275,2.665084 -8.829689,7.607115 v 72.403438 c 0.911364,2.75825 -0.263977,5.59998 9.237211,8.01464 l 35.726273,0.13583 v 11.95405 L 72.9468,191.40045 c -3.723773,-0.56519 -10.616432,10.97332 -10e-7,13.99165 l 63.845431,-0.13583 c 5.17821,1.52071 10.75906,-13.0876 -1.35841,-14.12751 z"
       id="path1"
       sodipodi:nodetypes="cccccccccccccccccc" /><path
       style="opacity:1;fill:#fff9f9;fill-opacity:1;stroke-width:0.2"
       d="m 50.193376,94.27389 c -3.582695,-0.452943 -6.478516,-0.06755 -7.199593,4.822367 l -0.13584,62.690783 124.158987,-0.13585 0.20376,-62.41909 c -1.03569,-2.864191 -2.415,-5.041135 -4.89029,-5.026131 h -52.50268"
       id="path4"
       sodipodi:nodetypes="ccccccc" /><path
       style="opacity:1;fill:#5f5f5f;stroke:url(#linearGradient2);stroke-width:0.2;fill-opacity:1"
       d="m 75.018433,71.080206 h 10.277814 c 1.180289,0.932906 2.494498,1.731892 2.689521,3.650064 v 6.051423 l 7.108021,4.610608 5.090881,-3.265847 c 1.64025,-0.332145 3.22459,-0.328788 4.61061,0.864489 l 4.80271,9.98965 c 0.04,1.610916 0.0426,3.212447 -1.92108,4.322445 l -4.51456,2.401359 -0.0961,8.164613 0.0961,0.67239 5.37905,2.88163 c 1.91902,1.85705 1.77092,3.7141 1.15265,5.57115 l -4.22639,7.49223 c -1.56889,2.11075 -3.13778,2.15559 -4.70667,1.72898 l -5.379038,-3.45795 c -2.612628,3.02206 -4.931809,3.4031 -7.300129,4.22639 l -0.09606,7.10802 c -1.073541,1.27555 -1.72822,3.07468 -3.746119,3.16979 h -8.836998 c -1.704078,-0.48454 -2.936499,-1.53506 -3.361902,-3.55401 l 0.480272,-6.43564 c -2.608151,-0.90711 -5.228865,-1.71371 -7.588292,-4.61061 l -5.09088,3.3619 c -1.873074,0.88069 -3.665253,0.70974 -5.282988,-1.72897 l -4.034282,-7.87646 c -1.24085,-0.3487 0.922292,-6.09283 2.689521,-5.76326 -0.480272,-0.0961 -0.672385,0.096 -0.672385,0.096 l 4.034283,-2.1132 0.576326,-8.54884 -5.379043,-3.265843 c -1.041392,-1.159169 -1.878889,-2.405721 -1.152652,-4.322445 l 4.802717,-9.31727 C 57.63399,81.3865 58.927462,81.88293 60.130007,82.606676 l 4.610608,2.785575 7.300129,-4.706662 -0.09605,-6.43564 c -0.2866,-1.110513 1.064952,-2.334875 3.073739,-3.169743 z"
       id="path2"
       sodipodi:nodetypes="ccccccccccccccccccccccccccccccccccccccc" /><ellipse
       style="opacity:1;fill:#fff9f9;fill-opacity:1;stroke-width:0.300753"
       id="path3"
       cx="79.581009"
       cy="104.41106"
       rx="13.687741"
       ry="14.312096" /><path
       style="opacity:1;fill:#f7f7f7;fill-opacity:1;stroke:url(#linearGradient5);stroke-width:0.129922;stroke-dasharray:none"
       d="m 100.67165,169.14252 6.3275,-0.031 c 1.6507,0.268 1.16295,2.11302 0,2.28656 l -6.37301,0.0189 c -1.508395,0.19171 -1.548298,-2.13418 0.0455,-2.27431 z"
       id="path5"
       sodipodi:nodetypes="cccccc" /><path
       style="opacity:1;fill:#010101;fill-opacity:1;stroke:url(#linearGradient6);stroke-width:0.1;stroke-dasharray:none"
       d="m 120.89844,115.98319 c 0.89863,-7.52546 4.81669,-13.14591 11.36838,-16.759065 -3.37577,5.008505 -3.90329,10.991395 -4.41367,16.781375 z"
       id="path6"
       sodipodi:nodetypes="cccc" /><path
       style="opacity:1;fill:#010101;fill-opacity:1;stroke:url(#linearGradient7);stroke-width:0.1;stroke-dasharray:none"
       d="m 128.16631,120.21958 c -0.0602,6.22291 0.91313,11.58591 3.73563,16.0972 -4.47108,-3.16434 -9.47631,-4.53309 -11.00315,-16.0972 z"
       id="path7"
       sodipodi:nodetypes="cccc" /><path
       style="opacity:1;fill:#010101;fill-opacity:1;stroke:url(#linearGradient8);stroke-width:0.0978981;stroke-dasharray:none"
       d="m 158.80539,119.94375 c -0.85258,7.52743 -5.14418,13.08529 -11.41848,16.70666 3.22926,-5.01311 3.81581,-10.86094 4.2983,-16.65222 z"
       id="path8"
       sodipodi:nodetypes="cccc" /><path
       style="opacity:1;fill:#010101;fill-opacity:1;stroke:url(#linearGradient9);stroke-width:0.1;stroke-dasharray:none"
       d="m 151.59893,116.21227 c -0.36345,-5.85465 -1.05174,-11.61047 -3.73563,-16.572646 5.66413,3.658376 10.06995,8.078236 10.66354,16.640566 z"
       id="path9"
       sodipodi:nodetypes="cccc" /><path
       style="opacity:1;fill:#010101;fill-opacity:1;stroke:url(#linearGradient10);stroke-width:0.1;stroke-dasharray:none"
       d="m 131.29066,116.28019 c 0.70138,-9.76052 1.80142,-17.811002 8.42216,-18.474425 4.74459,0.651814 8.29045,5.415455 8.2184,18.542345 z"
       id="path10"
       sodipodi:nodetypes="cccc" /><path
       style="opacity:1;fill:#010101;fill-opacity:1;stroke:url(#linearGradient11);stroke-width:0.1;stroke-dasharray:none"
       d="m 147.98804,119.75151 c -0.66398,9.76314 -1.73318,17.81777 -8.35134,18.50658 -4.74705,-0.63365 -8.31113,-5.38367 -8.28937,-18.51074 z"
       id="path11"
       sodipodi:nodetypes="cccc" /><path
       style="opacity:1;fill:#010101;fill-opacity:1;stroke:url(#linearGradient12);stroke-width:0.1;stroke-dasharray:none"
       d="M 54.270698,144.36966 H 154.74353 c 0.79234,0.67949 1.44184,1.41781 0.0961,2.97769 l -100.520856,-0.0961 c -0.654379,0.16218 -2.186979,-1.54523 -0.04803,-2.88163 z"
       id="path12"
       sodipodi:nodetypes="cccccc" /><path
       style="opacity:1;fill:#030303;fill-opacity:1;stroke:url(#linearGradient13);stroke-width:0.1;stroke-dasharray:none"
       d="M 54.534847,153.59087 H 155.00768 c 0.79234,0.67949 1.44184,1.41781 0.0961,2.97769 l -100.520857,-0.0961 c -0.654379,0.16218 -2.186979,-1.54523 -0.04803,-2.88163 z"
       id="path13"
       sodipodi:nodetypes="cccccc" /></g></svg>
