<?xml version="1.0" encoding="UTF-8" standalone="no"?>
<!-- Created with Inkscape (http://www.inkscape.org/) -->

<svg
   width="210mm"
   height="297mm"
   viewBox="0 0 210 297"
   version="1.1"
   id="svg1"
   xml:space="preserve"
   inkscape:version="1.4.2 (f4327f4, 2025-05-13)"
   sodipodi:docname="dibujo8.svg"
   xmlns:inkscape="http://www.inkscape.org/namespaces/inkscape"
   xmlns:sodipodi="http://sodipodi.sourceforge.net/DTD/sodipodi-0.dtd"
   xmlns:xlink="http://www.w3.org/1999/xlink"
   xmlns="http://www.w3.org/2000/svg"
   xmlns:svg="http://www.w3.org/2000/svg"><sodipodi:namedview
     id="namedview1"
     pagecolor="#ffffff"
     bordercolor="#000000"
     borderopacity="0.25"
     inkscape:showpageshadow="2"
     inkscape:pageopacity="0.0"
     inkscape:pagecheckerboard="0"
     inkscape:deskcolor="#d1d1d1"
     inkscape:document-units="mm"
     inkscape:zoom="0.68862935"
     inkscape:cx="614.26369"
     inkscape:cy="606.27681"
     inkscape:window-width="1920"
     inkscape:window-height="991"
     inkscape:window-x="-9"
     inkscape:window-y="-9"
     inkscape:window-maximized="1"
     inkscape:current-layer="layer1" /><defs
     id="defs1"><linearGradient
       id="swatch11"
       inkscape:swatch="solid"><stop
         style="stop-color:#000000;stop-opacity:1;"
         offset="0"
         id="stop11" /></linearGradient><linearGradient
       id="swatch10"
       inkscape:swatch="solid"><stop
         style="stop-color:#000000;stop-opacity:1;"
         offset="0"
         id="stop10" /></linearGradient><linearGradient
       id="swatch7"
       inkscape:swatch="solid"><stop
         style="stop-color:#000000;stop-opacity:1;"
         offset="0"
         id="stop7" /></linearGradient><linearGradient
       id="swatch6"
       inkscape:swatch="solid"><stop
         style="stop-color:#e41414;stop-opacity:1;"
         offset="0"
         id="stop6" /></linearGradient><linearGradient
       id="swatch5"
       inkscape:swatch="solid"><stop
         style="stop-color:#000000;stop-opacity:1;"
         offset="0"
         id="stop5" /></linearGradient><linearGradient
       id="swatch4"
       inkscape:swatch="solid"><stop
         style="stop-color:#000000;stop-opacity:1;"
         offset="0"
         id="stop4" /></linearGradient><linearGradient
       id="swatch3"
       inkscape:swatch="solid"><stop
         style="stop-color:#000000;stop-opacity:1;"
         offset="0"
         id="stop3" /></linearGradient><linearGradient
       id="swatch2"
       inkscape:swatch="solid"><stop
         style="stop-color:#000000;stop-opacity:1;"
         offset="0"
         id="stop2" /></linearGradient><linearGradient
       id="swatch1"
       inkscape:swatch="solid"><stop
         style="stop-color:#000000;stop-opacity:1;"
         offset="0"
         id="stop1" /></linearGradient><linearGradient
       inkscape:collect="always"
       xlink:href="#swatch1"
       id="linearGradient1"
       x1="60.033958"
       y1="135.29255"
       x2="140.43143"
       y2="135.29255"
       gradientUnits="userSpaceOnUse" /><linearGradient
       inkscape:collect="always"
       xlink:href="#swatch3"
       id="linearGradient3"
       x1="145.35023"
       y1="194.25312"
       x2="173.46939"
       y2="194.25312"
       gradientUnits="userSpaceOnUse" /><linearGradient
       inkscape:collect="always"
       xlink:href="#swatch4"
       id="linearGradient4"
       x1="26.624901"
       y1="194.25311"
       x2="147.5237"
       y2="194.25311"
       gradientUnits="userSpaceOnUse" /><linearGradient
       inkscape:collect="always"
       xlink:href="#swatch5"
       id="linearGradient5"
       x1="57.460887"
       y1="223.32317"
       x2="142.76925"
       y2="223.32317"
       gradientUnits="userSpaceOnUse" /><linearGradient
       inkscape:collect="always"
       xlink:href="#swatch7"
       id="linearGradient7"
       x1="74.05789"
       y1="215.97816"
       x2="126.40755"
       y2="215.97816"
       gradientUnits="userSpaceOnUse" /><linearGradient
       inkscape:collect="always"
       xlink:href="#swatch7"
       id="linearGradient8"
       gradientUnits="userSpaceOnUse"
       x1="74.05789"
       y1="215.97816"
       x2="126.40755"
       y2="215.97816"
       gradientTransform="matrix(1.0363859,0,0,0.99950115,-3.3985871,9.0407934)" /><linearGradient
       inkscape:collect="always"
       xlink:href="#swatch7"
       id="linearGradient9"
       gradientUnits="userSpaceOnUse"
       gradientTransform="matrix(1.086634,0,0,0.99882712,-8.3755609,18.311532)"
       x1="74.05789"
       y1="215.97816"
       x2="126.40755"
       y2="215.97816" /><linearGradient
       inkscape:collect="always"
       xlink:href="#swatch11"
       id="linearGradient11"
       x1="49.989612"
       y1="202.26775"
       x2="150.37636"
       y2="202.26775"
       gradientUnits="userSpaceOnUse" /></defs><g
     inkscape:label="Capa 1"
     inkscape:groupmode="layer"
     id="layer1"><g
       id="g1"
       inkscape:export-filename="g1.png"
       inkscape:export-xdpi="96"
       inkscape:export-ydpi="96"><path
         style="opacity:1;fill:#000000;stroke:url(#linearGradient1);stroke-width:0.1;fill-opacity:1"
         d="m 63.684022,155.22381 0.288163,-36.21249 72.232855,-0.0961 -0.096,36.4046 c 1.33274,1.1408 2.64571,2.57816 4.22639,0 l -0.0961,-36.88487 c -0.10201,-1.76087 0.19349,-2.94445 -2.11319,-3.26585 l -74.538162,0.0961 c -1.658458,-0.1177 -3.159045,0.0172 -3.55401,1.92109 l 0.192108,38.22962 c 0.572055,3.3985 3.217912,1.50135 3.457956,-0.19216 z"
         id="path1"
         sodipodi:nodetypes="cccccccccccc" /><path
         style="opacity:1;fill:#494f56;fill-opacity:1;stroke:none;stroke-width:0.1"
         d="m 40.752402,163.28129 117.978208,0.034 c 5.29996,-1.83395 11.32246,3.05512 11.02445,8.25236 l -0.39487,45.64269 c -0.43017,4.46918 -3.41355,7.76331 -9.27117,8.25236 h -14.70483 -4.7884 l -87.889351,-0.23772 -9.780574,0.27169 c -10.0614,0.34629 -11.400067,-4.67014 -11.818197,-8.96554 l -0.271685,-45.09932 c 1.557041,-5.99514 5.491321,-7.53295 9.916419,-8.15048 z"
         id="path2"
         sodipodi:nodetypes="ccccccccccccc" /><path
         style="opacity:1;fill:#000000;fill-opacity:1;stroke:url(#linearGradient5);stroke-width:0.1"
         d="m 58.411776,247.0954 82.727374,0.27168 c 1.15594,-0.1344 1.62583,-1.0311 1.6301,-2.44514 l -5.29781,-41.97498 3.20392,-0.0315 c 2.27796,0.35475 3.72234,-3.28279 -0.0796,-3.63617 l -81.097283,0.13584 c -4.347753,1.84928 -0.466453,3.75546 0.135842,3.53187 h 2.852666 l -3.803557,31.51519 c 1.152697,1.87995 2.886468,2.08773 3.9394,-0.13584 l 3.531875,-31.10766 67.920667,-0.13585 4.58707,40.88825 -76.990501,-0.27169 0.13584,-2.98851 c -0.635161,-2.53132 -3.459514,-1.614 -3.939397,0 l -0.407525,5.70534 z"
         id="path5"
         sodipodi:nodetypes="ccccccccccccccccccc" /><path
         style="opacity:1;fill:#ffffff;fill-opacity:1;stroke-width:0.1;stroke:none"
         d="m 66.085381,203.44308 67.718299,-0.38422 4.99483,40.72704 -77.227683,-0.28817 z"
         id="path6" /><path
         style="opacity:1;fill:#000000;fill-opacity:1;stroke:url(#linearGradient3);stroke-width:0.1"
         d="m 154.58745,163.41713 c -1.72429,-1.474 -2.11448,-2.82672 0.13584,-3.9394 l 8.28632,0.40753 c 4.03922,2.16656 8.80522,2.77573 10.45978,10.05226 v 47.13694 c -0.65954,5.52503 -3.74647,9.7725 -11.27483,11.68236 l -16.57264,0.27168 c -1.56576,-0.32776 -1.14713,-2.86415 -0.27169,-3.53187 l 16.43681,-0.40753 c 6.12115,-1.39955 6.94051,-4.56702 7.33543,-8.82968 l 0.32795,-45.04307 c -1.04101,-5.39156 -3.7986,-7.31032 -6.98418,-7.79922 z"
         id="path3"
         sodipodi:nodetypes="ccccccccccccc" /><path
         style="opacity:1;fill:#000000;fill-opacity:1;stroke:url(#linearGradient4);stroke-width:0.1"
         d="m 147.5237,159.61357 c 3.39501,0.49817 1.81327,4.53105 0,3.80356 L 41.199713,163.20172 c -6.369366,0.98328 -8.993415,4.09297 -10.30746,8.3261 l 0.543364,46.3219 c 1.12432,3.95362 0.803698,7.12835 10.075565,7.63042 l 13.097037,-0.39104 c 2.568958,0.54467 2.53842,4.04282 0.135842,3.66772 H 39.122306 c -5.643689,-0.15412 -9.207232,-3.06347 -11.95404,-10.45979 l -0.27168,-47.0011 c 1.155025,-8.49925 6.900346,-10.44094 13.040767,-11.8182 z"
         id="path4"
         sodipodi:nodetypes="ccccccccccccc" /><path
         style="opacity:1;fill:#020101;fill-opacity:1;stroke:url(#linearGradient7);stroke-width:0.1"
         d="m 74.153944,214.20116 52.157506,0.19211 c 2.46535,1.16015 1.0896,3.11287 0.0961,3.3619 H 74.05789 c -1.567686,-0.39939 -3.032336,-1.97659 0.09605,-3.55401 z"
         id="path7"
         sodipodi:nodetypes="ccccc" /><path
         style="opacity:1;fill:#020101;fill-opacity:1;stroke:url(#linearGradient8);stroke-width:0.101778"
         d="m 73.453515,223.1351 54.055305,0.19201 c 2.55506,1.15957 1.12925,3.11132 0.0996,3.36022 H 73.353966 c -1.624728,-0.39919 -3.142671,-1.9756 0.09954,-3.55223 z"
         id="path8"
         sodipodi:nodetypes="ccccc" /><path
         style="opacity:1;fill:#020101;fill-opacity:1;stroke:url(#linearGradient9);stroke-width:0.104181"
         d="m 72.202641,232.26146 56.676129,0.19188 c 2.67894,1.15879 1.184,3.10922 0.10443,3.35795 H 72.098266 c -1.703502,-0.39892 -3.295041,-1.97427 0.104366,-3.54983 z"
         id="path9"
         sodipodi:nodetypes="ccccc" /><path
         style="opacity:1;fill:#150d0d;fill-opacity:1;stroke:url(#linearGradient11);stroke-width:0.1"
         d="m 54.41611,193.55743 91.20581,0.0165 0.13584,17.73212 -2.49318,0.11936 c -1.56384,1.16546 -1.56214,3.132 0.18388,3.47561 l 4.89028,-0.13584 c 2.25872,-0.64798 1.99518,-1.99658 2.03762,-3.26019 l -0.13584,-19.15363 c 0.11238,-2.44485 -2.39186,-2.46067 -3.5799,-2.47669 l -93.818339,0.30323 c -2.635509,-0.0662 -2.710544,1.27583 -2.852669,2.58098 l 0.271682,19.697 c 0.270851,0.8381 0.49935,1.69738 1.765938,2.03761 l 4.346924,0.13585 c 1.707759,-0.23345 2.416281,-2.369 -0.04803,-3.3878 l -1.989592,-0.008 z"
         id="path10"
         sodipodi:nodetypes="ccccccccccccccccc" /><ellipse
         style="opacity:1;fill:#000000;fill-opacity:1;stroke:none;stroke-width:0.151517"
         id="path11"
         cx="45.326393"
         cy="176.12996"
         rx="9.3051319"
         ry="8.5580044" /><ellipse
         style="opacity:1;fill:#40d39b;fill-opacity:1;stroke:none;stroke-width:0.0975606"
         id="path12"
         cx="44.998444"
         cy="175.99408"
         rx="5.3657331"
         ry="4.7544465" /><ellipse
         style="opacity:1;fill:#000000;fill-opacity:1;stroke:none;stroke-width:0.151517"
         id="ellipse12"
         cx="68.124428"
         cy="176.4579"
         rx="9.3051319"
         ry="8.5580044" /><ellipse
         style="opacity:1;fill:#fc6947;fill-opacity:1;stroke:none;stroke-width:0.0975606"
         id="ellipse13"
         cx="68.180695"
         cy="176.43457"
         rx="5.3657331"
         ry="4.7544465" /><path
         style="opacity:1;fill:#36393d;fill-opacity:1;stroke:none;stroke-width:0.1"
         d="m 44.473156,225.34346 -2.977685,-3.55401 -0.960543,-2.11319 -0.288163,-1.82503 -0.09605,-2.40136 -0.09605,-3.07374 -0.288163,-28.62419 -1.632923,-1.34476 -0.768435,-1.44082 -1.34476,-2.59347 -0.192109,-1.82503 0.384217,-2.49741 0.864489,-1.82503 1.921087,-2.30531 1.632923,-1.2487 0.192109,-1.34476 3.55401,-3.93823 0.288163,-0.28816 -5.379042,0.48027 -3.842173,1.53687 -2.113196,1.72897 -1.825032,3.07374 -0.576326,1.92109 0.576326,45.33764 0.288163,2.49742 0.67238,2.01714 1.825033,2.20925 2.593467,0.96054 4.22639,0.86449 2.497413,-0.096 z"
         id="path13" /></g></g></svg>
